<svg id="Layer_1" data-name="Layer 1" xmlns="http://www.w3.org/2000/svg" viewBox="0 0 50 16.2"><defs><style>.cls-1{fill:#222831;}</style></defs><title>NSTU_BUS_TRACKING_LOGO</title><path class="cls-1" d="M4.46,0a4.37,4.37,0,0,0-4,6l0,0,3.12,7.5a1,1,0,0,0,1.8,0l3.13-7.5,0,0a4.33,4.33,0,0,0,.32-1.65A4.38,4.38,0,0,0,4.46,0Zm0,5.79A1.64,1.64,0,1,1,6.1,4.16,1.63,1.63,0,0,1,4.46,5.79Z"/><path class="cls-1" d="M15.9,3.75,13.46,1.33V3.75h-.94V0h.94L15.9,2.51V0h.94V3.75Z"/><path class="cls-1" d="M22.6.64v.61h-.87c0-.32-.09-.42-.36-.42H18.85v.24l3.08.69c.51.13.67.31.67.85v.6a.59.59,0,0,1-.62.54H18.71a.74.74,0,0,1-.77-.69V2.52h.86c0,.31.1.41.38.41h2.51V2.58l-3.17-.77c-.44-.11-.58-.27-.58-.66V.62A.63.63,0,0,1,18.55,0H22A.64.64,0,0,1,22.6.64Z"/><path class="cls-1" d="M26.09,3.75h-.94V.89H23.58V0h4.21V.89h-1.7Z"/><path class="cls-1" d="M32.26,3.75H29.55a.76.76,0,0,1-.79-.8V0h.94V2.47c0,.28.06.42.34.42h1.74c.28,0,.34-.14.34-.42V0H33V3A.76.76,0,0,1,32.26,3.75Z"/><path class="cls-1" d="M17,7v.5c0,.37-.17.57-.51.57a.61.61,0,0,1,.66.67v.5a.68.68,0,0,1-.74.71H12.52V6.23h3.62A.78.78,0,0,1,17,7Zm-1,.38c0-.24-.09-.34-.32-.34H13.45V7.7h2.29C16,7.7,16.05,7.65,16.05,7.41Zm.23,1.41c0-.21-.09-.31-.31-.31H13.45v.64H16C16.2,9.16,16.28,9.06,16.28,8.82Z"/><path class="cls-1" d="M21.76,10H19a.76.76,0,0,1-.78-.8V6.23h.94V8.7c0,.28.05.42.33.42h1.74c.28,0,.34-.14.34-.42V6.23h.92V9.18A.75.75,0,0,1,21.76,10Z"/><path class="cls-1" d="M28.29,6.86v.61h-.87c0-.32-.09-.41-.36-.41H24.54v.23L27.62,8c.51.14.67.32.67.85v.6a.59.59,0,0,1-.62.55H24.4a.75.75,0,0,1-.77-.7V8.75h.86c0,.31.1.4.38.4h2.51V8.8L24.21,8c-.44-.11-.58-.26-.58-.65V6.85a.62.62,0,0,1,.61-.62h3.42A.63.63,0,0,1,28.29,6.86Z"/><path class="cls-1" d="M14.92,16.2H14V13.34H12.4v-.89h4.21v.89H14.92Z"/><path class="cls-1" d="M22.25,15.5v.7h-.91v-.5c0-.35-.18-.51-.56-.51H18.53v1h-.94V12.46h3.86a.77.77,0,0,1,.8.84v.9a.63.63,0,0,1-.66.64A.64.64,0,0,1,22.25,15.5Zm-.92-1.41v-.38A.35.35,0,0,0,21,13.3H18.51v1.06H21C21.3,14.37,21.33,14.14,21.33,14.09Z"/><path class="cls-1" d="M23.91,16.2h-1l2-3.75h1.23l2,3.75H27l-.5-.95H24.42Zm.95-1.76h1.2l-.59-1.13Z"/><path class="cls-1" d="M32.63,16.2H29.37a.66.66,0,0,1-.71-.69V13.15a.66.66,0,0,1,.71-.7h3.26a.66.66,0,0,1,.7.7v.56H32.4v-.09a.29.29,0,0,0-.33-.33H29.94a.3.3,0,0,0-.34.33V15a.31.31,0,0,0,.34.34h2.13A.3.3,0,0,0,32.4,15V15h.93v.55A.66.66,0,0,1,32.63,16.2Z"/><path class="cls-1" d="M37.74,16.2l-1.51-1.42h-.87V16.2h-.94V12.45h.94v1.43h.87l1.51-1.43H39.1l-2,1.89,2,1.86Z"/><path class="cls-1" d="M40.89,13.3v.51h3.35v.82H40.89v.74h3.35v.83H40V12.45h4.28v.85Z"/><path class="cls-1" d="M50,15.5v.7h-.91v-.5c0-.35-.19-.51-.56-.51H46.27v1h-.94V12.46H49.2a.77.77,0,0,1,.8.84v.9a.63.63,0,0,1-.66.64A.64.64,0,0,1,50,15.5Zm-.93-1.41v-.38a.35.35,0,0,0-.38-.41H46.26v1.06H48.7C49,14.37,49.07,14.14,49.07,14.09Z"/><path class="cls-1" d="M7.92,16.2l-.19-.07a9.21,9.21,0,0,0-6.54,0L1,16.2.89,16a4.35,4.35,0,0,1,0-5.28L1,10.58l.19.07c.32.12.64.22,1,.31l-.14.5-.8-.24a3.77,3.77,0,0,0,0,4.35,9.55,9.55,0,0,1,6.5,0,3.77,3.77,0,0,0,0-4.35,5.76,5.76,0,0,1-.59.18L7,10.9a7.32,7.32,0,0,0,.75-.25l.19-.07.12.17A4.38,4.38,0,0,1,8,16Z"/></svg>